<svg xmlns="http://www.w3.org/2000/svg" width="196" height="38" viewBox="0 0 196 38"><path d="M85.245,10.245h7.8c3.81,0,3.81,2.55,3.81,4.5v2.28c0,2.7-.84,3.18-2.729,3.6.93.24,2.88.81,2.88,3.66v4.319c0,1.08.09,2.19.9,2.851h-4.29c-.45-.811-.57-1.71-.57-2.34v-4.53c0-1.439,0-2.46-2.04-2.46h-1.859v9.33h-3.9V10.245ZM89.145,19.094h2.04c1.77,0,1.8-.96,1.8-2.04v-2.01c0-1.74-.931-1.74-1.8-1.74h-2.04v5.79Z" style="fill:#fff;"/><path d="M100.695,10.245h10.26v3.24h-6.36v4.98h5.97v3.209h-5.97v6.51h6.63v3.271h-10.529V10.245Z" style="fill:#fff;"/><path d="M121.874,17.115v-2.01c0-1.05,0-2.22-1.83-2.22-1.979,0-1.979,1.59-1.979,2.73v11.16c0,1.409.479,2.13,1.859,2.13,1.95,0,1.95-1.44,1.95-2.46v-3.3h-2.43v-3.181h6.329v11.49h-3.329v-1.26c-.57.63-1.5,1.71-3.75,1.71-1.89,0-4.59-.811-4.59-4.32v-12.06c0-2.13.18-5.7,6.029-5.7.96,0,2.79.15,4.05.96,1.2.78,1.59,1.92,1.59,3.24v3.09h-3.899Z" style="fill:#fff;"/><path d="M129.914,10.275h3.869v21.18h-3.869V10.275Z" style="fill:#fff;"/><path d="M137.503,23.985h3.899v2.46c0,1.229,0,2.46,1.89,2.46,1.92,0,1.92-1.261,1.92-3.15,0-1.5-.3-2.13-1.319-2.819l-3.72-2.491c-1.98-1.35-2.521-2.82-2.521-4.979,0-1.65.15-3.24,1.53-4.38.78-.66,2.22-1.26,4.26-1.26,2.28,0,5.399.93,5.399,4.56v2.1h-3.869v-1.53c0-1.02,0-2.16-1.71-2.16-1.051,0-1.801.39-1.801,2.1,0,1.77.391,2.16,1.23,2.73l3.84,2.61c.75.54,1.56,1.29,2.01,2.071.57.96.57,1.619.57,3.329,0,1.891,0,3.061-.69,4.17-1.17,1.891-3.6,2.101-5.04,2.101-3.329,0-5.879-1.261-5.879-4.83v-3.09Z" style="fill:#fff;"/><path d="M150.163,10.275h11.729v3.06h-3.899v18.12h-3.93V13.335h-3.9v-3.06Z" style="fill:#fff;"/><path d="M163.483,10.245h10.26v3.24h-6.36v4.98h5.97v3.209h-5.97v6.51h6.63v3.271h-10.529V10.245Z" style="fill:#fff;"/><path d="M177.252,10.245h7.8c3.81,0,3.81,2.55,3.81,4.5v2.28c0,2.7-.84,3.18-2.73,3.6.931.24,2.88.81,2.88,3.66v4.319c0,1.08.091,2.19.9,2.851h-4.29c-.45-.811-.569-1.71-.569-2.34v-4.53c0-1.439,0-2.46-2.04-2.46h-1.86v9.33h-3.899V10.245ZM181.152,19.094h2.04c1.77,0,1.8-.96,1.8-2.04v-2.01c0-1.74-.93-1.74-1.8-1.74h-2.04v5.79Z" style="fill:#fff;"/><path d="M20.703,29.259c-.036.288-.107.576-.107.863,0,.864.252,1.044.539,1.332h-6.551l.504-2.016c-1.296,1.116-2.916,2.52-5.184,2.52-.396,0-3.815,0-3.815-3.491,0-1.188.756-4.571,1.944-5.939,1.188-1.368,2.915-1.872,9.646-3.815.18-.756.432-1.98.432-2.268,0-1.008-.936-1.08-1.548-1.08-1.619,0-1.907.864-2.447,2.808h-5.472c.828-3.348,1.26-4.463,3.023-5.363,1.332-.684,3.168-1.008,5.184-1.008,3.312,0,6.731.828,6.731,4.211,0,.72-.145,1.439-.324,2.16l-2.556,11.087ZM16.851,22.42c-1.296.396-2.951.899-3.636,1.439-.936.756-1.188,2.808-1.188,3.168,0,.647.288,1.188,1.26,1.188,1.008,0,1.764-.612,2.376-1.152l1.188-4.643Z" style="fill:#fff;"/><path d="M34.958,6.042l-1.943,8.315c.864-1.044,2.231-2.52,4.715-2.52,1.98,0,3.96.972,3.96,3.636,0,.54-.108,1.116-.216,1.656l-3.312,14.326h-5.688l3.132-13.57c.071-.288.107-.576.107-.864,0-1.08-.756-1.512-1.512-1.512-1.439,0-1.728,1.152-1.871,1.764l-3.24,14.182h-5.723l5.867-25.413h5.723Z" style="fill:#fff;"/><path d="M55.947,29.259c-.036.288-.108.576-.108.863,0,.864.252,1.044.54,1.332h-6.551l.504-2.016c-1.296,1.116-2.916,2.52-5.184,2.52-.396,0-3.815,0-3.815-3.491,0-1.188.756-4.571,1.943-5.939s2.916-1.872,9.646-3.815c.181-.756.433-1.98.433-2.268,0-1.008-.937-1.08-1.548-1.08-1.62,0-1.908.864-2.448,2.808h-5.471c.827-3.348,1.26-4.463,3.023-5.363,1.332-.684,3.168-1.008,5.184-1.008,3.312,0,6.73.828,6.73,4.211,0,.72-.144,1.439-.323,2.16l-2.556,11.087ZM52.095,22.42c-1.296.396-2.952.899-3.636,1.439-.936.756-1.188,2.808-1.188,3.168,0,.647.287,1.188,1.26,1.188,1.008,0,1.764-.612,2.375-1.152l1.188-4.643Z" style="fill:#fff;"/><path d="M61.419,25.984h5.327l-1.26,5.471h-5.327l1.26-5.471ZM71.354,6.042l-1.079,4.607-3.924,12.562h-3.275l1.764-12.238,1.188-4.931h5.327Z" style="fill:#fff;"/></svg>